<svg version="1.1" id="Layer_1" xmlns="http://www.w3.org/2000/svg" xmlns:xlink="http://www.w3.org/1999/xlink" x="0px" y="0px"
	 width="100%" viewBox="0 0 256 224" enable-background="new 0 0 256 224" xml:space="preserve">
<path fill="#000000" opacity="1.000000" stroke="none" 
	d="
M161.209839,201.163391 
	C165.534668,199.288239 169.510162,197.586487 173.458481,195.823853 
	C175.291748,195.005447 177.363541,193.652908 178.678619,196.096191 
	C179.968994,198.493500 177.874023,199.671143 176.070648,200.636215 
	C159.337387,209.590805 141.515823,213.852997 122.595909,211.718353 
	C79.683899,206.876740 46.341824,178.953827 36.271431,136.968842 
	C28.057720,102.724617 37.067478,71.908989 61.679489,46.349869 
	C80.399612,26.909378 103.804520,17.008127 130.590088,17.123775 
	C162.597000,17.261971 189.185318,30.116537 208.584015,55.924866 
	C238.534760,95.771782 234.601776,148.082443 199.490723,183.422287 
	C198.903671,184.013184 198.329803,184.620834 197.705612,185.170486 
	C196.300781,186.407593 194.758835,187.831238 192.960892,186.045074 
	C190.897797,183.995499 192.547852,182.493851 194.064514,181.062119 
	C205.172882,170.576050 213.396805,158.187363 218.155182,143.652939 
	C228.440247,112.237274 222.699982,83.500931 202.888657,57.475136 
	C190.673447,41.428265 174.379776,30.750368 155.003799,25.751051 
	C109.464218,14.001092 63.746983,36.373558 45.693302,80.606514 
	C23.170074,135.790222 59.523556,196.307800 118.175125,205.774353 
	C132.813431,208.137009 147.008835,206.473145 161.209839,201.163391 
z"/>
<path fill="#000000" opacity="1.000000" stroke="none" 
	d="
M157.174011,124.517075 
	C157.931335,133.451324 153.385040,139.829391 148.577393,146.092270 
	C146.970871,148.185074 145.305756,150.232864 143.309311,152.753342 
	C151.464157,158.263062 158.904984,164.057114 165.852493,170.473373 
	C175.893784,179.746841 186.061996,188.854126 198.753098,194.552841 
	C205.069595,197.389160 211.535034,199.232773 218.520554,199.086380 
	C220.683182,199.041031 223.350830,199.092972 223.425964,202.040436 
	C223.511505,205.395966 220.656387,205.286514 218.331619,205.240646 
	C204.463699,204.967072 192.530945,199.450989 181.457962,191.574509 
	C170.973633,184.116730 162.175888,174.667557 152.044098,166.800369 
	C149.286179,164.658890 146.210663,162.885437 143.651093,160.539215 
	C139.824280,157.031403 136.881042,158.059235 133.507736,161.278275 
	C126.683784,167.790115 118.853912,172.764725 109.705513,175.455353 
	C103.517418,177.275314 97.754585,175.734970 94.892982,171.463623 
	C92.098297,167.292160 92.820946,161.081116 97.252281,156.327118 
	C106.860901,146.018875 118.858009,144.610443 131.652008,148.367538 
	C135.695129,149.554840 138.159042,148.993546 140.674179,145.843765 
	C144.308441,141.292465 148.480713,137.122421 150.263138,131.376068 
	C150.955582,129.143723 151.665222,126.646561 149.990906,124.682503 
	C148.189270,122.569092 145.711060,123.475182 143.456070,124.135368 
	C136.049408,126.303787 129.689865,130.788742 122.564049,133.595398 
	C119.619217,134.755280 116.753975,136.034424 113.583992,136.527954 
	C109.809555,137.115601 106.594849,136.235138 104.283386,133.127319 
	C101.886314,129.904388 102.446404,126.492836 104.284706,123.257339 
	C107.856590,116.970673 113.756447,113.578568 120.178986,110.976151 
	C123.413513,109.665520 126.797142,108.727043 130.061859,107.484932 
	C131.615021,106.893997 133.315811,106.031578 133.296173,104.092827 
	C133.276199,102.121887 131.438995,101.409882 129.932343,100.817215 
	C128.090240,100.092590 126.107422,99.732208 124.200569,99.163635 
	C122.641815,98.698837 121.466415,97.846390 121.672417,95.982246 
	C121.910194,93.830536 123.430321,93.265907 125.253830,93.422218 
	C126.904671,93.563721 128.565903,93.844704 130.165573,94.275673 
	C136.099228,95.874290 140.410019,99.934639 140.025742,104.155678 
	C139.540314,109.488029 135.705414,112.135620 130.997147,113.689743 
	C125.148674,115.620232 119.174202,117.276474 114.278587,121.273994 
	C113.002007,122.316391 111.780167,123.472496 110.740921,124.745895 
	C109.684006,126.040939 108.726074,127.614815 109.742302,129.314316 
	C110.871460,131.202652 112.569397,130.402252 114.198822,129.963470 
	C120.365112,128.302948 125.968460,125.385254 131.549637,122.389778 
	C136.424103,119.773605 141.450516,117.676117 147.141846,117.588799 
	C152.005096,117.514183 155.585403,119.169830 157.174011,124.517075 
M122.726395,162.240952 
	C125.452698,159.892319 128.716812,158.128510 131.007980,154.950439 
	C128.648636,152.820175 125.738716,152.756851 123.322914,152.713120 
	C115.241310,152.566788 107.206741,153.330811 101.816017,160.580490 
	C100.291069,162.631317 98.321915,165.101273 100.078270,167.856964 
	C101.936996,170.773285 105.201553,170.240173 107.833694,169.546021 
	C112.992821,168.185440 117.878586,166.008987 122.726395,162.240952 
z"/>
<path fill="#000000" opacity="1.000000" stroke="none" 
	d="
M173.620422,113.589462 
	C153.734085,102.984558 138.879700,88.136360 130.122238,66.591690 
	C123.025734,85.281273 111.128677,99.016861 95.310066,109.426826 
	C91.712242,111.794502 87.805717,113.721802 83.931442,115.628654 
	C81.967667,116.595207 79.470627,117.226059 78.260056,114.656563 
	C76.926277,111.825516 79.486809,111.024261 81.404327,110.029129 
	C98.363319,101.227898 112.377129,89.420059 120.843605,71.811256 
	C124.793991,63.595150 126.982475,54.975632 127.723106,45.934963 
	C127.830917,44.618973 127.914948,43.257530 128.323532,42.020702 
	C128.834396,40.474274 130.004761,39.538136 131.780258,39.840221 
	C133.296524,40.098202 134.048935,41.126534 134.252853,42.581028 
	C134.344864,43.237289 134.417328,43.916973 134.352493,44.571552 
	C132.297043,65.326195 142.769989,80.454079 156.667648,93.962273 
	C163.286179,100.395302 171.083572,105.196609 179.284088,109.371300 
	C181.509598,110.504257 185.318665,111.164536 183.662048,114.683228 
	C182.166336,117.860100 179.088791,116.075089 176.662659,115.060982 
	C175.742035,114.676178 174.858994,114.201439 173.620422,113.589462 
z"/>
</svg>