<svg version="1.1" id="Layer_1" xmlns="http://www.w3.org/2000/svg" xmlns:xlink="http://www.w3.org/1999/xlink" x="0px" y="0px"
	 width="100%" viewBox="0 0 400 384" enable-background="new 0 0 400 384" xml:space="preserve">
<path fill="#000000" opacity="1.000000" stroke="none" 
	d="
M137.913757,226.872162 
	C152.335434,216.039673 168.475922,213.633133 185.545609,215.133865 
	C191.025818,215.615677 196.393250,216.703857 201.661850,218.354080 
	C206.170197,219.766190 209.870667,218.940659 213.145294,214.943741 
	C219.047424,207.739838 225.745346,201.186111 230.334564,192.947144 
	C232.131073,189.721848 233.575500,186.378052 234.347824,182.774338 
	C235.884125,175.605911 231.836014,171.364929 224.612335,172.549149 
	C216.634857,173.856979 209.297989,176.954224 202.124176,180.554596 
	C191.718765,185.776840 181.603668,191.709381 170.331924,194.942947 
	C165.123734,196.437057 159.889465,197.978149 154.177841,196.519104 
	C144.869263,194.141251 140.847916,187.628494 143.272125,178.159653 
	C145.219620,170.552795 149.807846,164.807983 155.603439,159.826874 
	C165.782486,151.078369 178.420959,147.740189 190.802872,143.867111 
	C193.367371,143.064941 195.858490,142.159729 198.114548,140.726562 
	C203.013245,137.614670 202.892502,134.138718 197.844360,131.374329 
	C193.368271,128.923203 188.335251,128.399155 183.461853,127.487831 
	C179.986923,126.838020 177.720688,125.318954 177.878677,121.745148 
	C178.055771,117.739380 180.943100,116.517448 184.518799,116.652344 
	C192.465103,116.952118 200.016037,118.768837 206.686081,123.246216 
	C215.766724,129.341751 215.810226,142.771927 206.859177,149.240433 
	C200.773621,153.638168 193.555084,155.221161 186.538239,157.277100 
	C177.670349,159.875351 169.289230,163.404556 162.241562,169.589874 
	C159.316833,172.156723 156.933792,175.128052 155.487610,178.757980 
	C153.610031,183.470627 155.889023,186.318527 160.966476,185.337296 
	C164.379059,184.677795 167.765945,183.676086 171.019989,182.445694 
	C179.914551,179.082611 188.130173,174.270630 196.655823,170.117218 
	C205.673935,165.723938 214.976944,162.371567 225.054291,161.137390 
	C238.622498,159.475662 248.360626,169.552643 246.027908,183.070587 
	C243.935944,195.193390 237.458252,204.949966 229.749771,214.070190 
	C226.541855,217.865616 223.143967,221.500488 219.742020,225.309631 
	C242.508926,242.377747 261.667572,263.755981 287.162201,276.754425 
	C306.367981,286.546509 326.409424,291.257721 347.843536,284.819366 
	C357.986084,281.772736 366.460327,276.078003 373.683167,268.419189 
	C374.824524,267.208923 375.886627,265.895752 377.164459,264.848755 
	C379.301514,263.097626 381.790161,262.664154 384.051605,264.430054 
	C386.339355,266.216522 386.478882,268.738159 385.173279,271.201019 
	C382.123199,276.954895 377.133606,280.946411 372.122894,284.789520 
	C358.175995,295.486450 342.233307,299.369873 324.830292,298.617584 
	C299.232361,297.510986 277.910858,286.360626 258.136047,271.167389 
	C248.081985,263.442749 238.736008,254.911682 229.146652,246.652863 
	C224.602875,242.739563 219.813629,239.179794 214.545181,236.210480 
	C211.218033,234.335297 209.047180,234.776230 206.262527,237.312775 
	C193.775391,248.687271 180.482376,258.983795 164.519424,265.121674 
	C156.251282,268.300842 147.801254,270.562653 138.727844,268.485168 
	C128.580978,266.161957 123.098289,257.873993 125.145477,247.622620 
	C126.819618,239.239319 131.422272,232.693069 137.913757,226.872162 
M168.306503,250.803146 
	C178.906677,245.144928 188.407822,238.038528 197.774628,228.782837 
	C178.573135,224.624115 160.953506,224.054413 145.118546,236.017487 
	C141.109283,239.046387 138.175797,243.220703 137.274704,248.405701 
	C136.183228,254.686172 138.564789,257.609131 144.881836,257.699158 
	C153.117065,257.816528 160.450714,254.696518 168.306503,250.803146 
z"/>
<path fill="#000000" opacity="1.000000" stroke="none" 
	d="
M177.540634,99.487122 
	C158.145676,125.758537 132.891708,144.047516 103.929672,157.609894 
	C102.301826,158.372162 100.469872,159.063751 98.715271,159.109344 
	C95.663765,159.188614 93.701370,157.213181 93.077415,154.372833 
	C92.408394,151.327332 94.186890,149.163818 96.782837,147.991104 
	C102.405136,145.451187 107.934700,142.757843 113.310799,139.724503 
	C137.019485,126.347420 157.482819,109.331963 172.490921,86.370850 
	C180.385559,74.292740 186.000626,61.168625 188.886703,46.942192 
	C189.368973,44.564899 189.366257,41.867916 191.672775,40.199989 
	C195.383011,37.517002 199.997101,39.950695 201.046936,45.271267 
	C202.729202,53.796848 205.164261,62.103405 208.753174,69.999847 
	C219.871460,94.462631 237.240433,113.642319 259.208313,128.802689 
	C269.501678,135.906311 280.180389,142.358719 291.776062,147.202942 
	C296.488617,149.171646 298.220184,152.352859 296.606354,155.572159 
	C294.456909,159.859955 291.089081,159.659546 287.295502,157.914673 
	C246.959442,139.361877 214.337967,112.800888 196.630859,70.719887 
	C196.383957,70.133110 195.959015,69.621246 194.788498,67.748795 
	C190.241669,79.582680 184.617859,89.754845 177.540634,99.487122 
z"/>
<path fill="#000000" opacity="1.000000" stroke="none" 
	d="
M44.192047,292.000000 
	C44.174519,312.650024 44.270882,332.801300 44.050533,352.949127 
	C44.000626,357.512421 45.428631,358.999542 50.017590,358.971924 
	C79.658661,358.793732 109.301178,358.854248 138.943222,358.842499 
	C141.107666,358.841644 143.272339,358.877777 145.436554,358.916046 
	C147.159561,358.946503 148.336685,359.622864 148.355728,361.545929 
	C148.374130,363.405334 147.404251,364.274780 145.577515,364.273926 
	C144.745148,364.273529 143.912781,364.316406 143.080414,364.316437 
	C110.607201,364.317871 78.133965,364.331024 45.660774,364.303833 
	C38.979183,364.298218 38.730640,364.025848 38.727699,357.132080 
	C38.706169,306.673615 38.706596,256.215149 38.708134,205.756683 
	C38.708172,204.593323 38.730457,203.421143 38.871662,202.268906 
	C39.038071,200.911026 39.949203,200.242767 41.277992,200.235748 
	C42.564167,200.228943 43.671753,200.802979 43.883915,202.099380 
	C44.150471,203.728149 44.158627,205.410461 44.159885,207.069748 
	C44.181252,235.213150 44.184219,263.356567 44.192047,292.000000 
z"/>
<path fill="#000000" opacity="1.000000" stroke="none" 
	d="
M347.872681,166.999985 
	C347.882202,124.336716 347.892456,82.173424 347.901642,40.010139 
	C347.903137,33.209965 347.900879,33.206455 340.912476,33.206856 
	C311.414734,33.208546 281.916992,33.213436 252.419250,33.212971 
	C250.919815,33.212948 249.417618,33.223289 247.921661,33.140011 
	C246.249329,33.046913 244.989670,32.335773 244.952438,30.460005 
	C244.915054,28.574974 246.115372,27.826237 247.823776,27.734905 
	C248.987549,27.672693 250.155807,27.679884 251.322052,27.680309 
	C283.152985,27.691902 314.984406,27.797096 346.814331,27.625284 
	C351.704224,27.598892 353.451965,28.803671 353.432648,34.015678 
	C353.245758,84.511223 353.315765,135.007721 353.311707,185.503952 
	C353.311646,186.337204 353.305206,187.170471 353.297089,188.003693 
	C353.279877,189.776947 353.118744,191.440155 350.704254,191.369110 
	C348.492493,191.304031 347.934387,189.847794 347.925934,187.998047 
	C347.894775,181.165421 347.888672,174.332672 347.872681,166.999985 
z"/>
<path fill="#000000" opacity="1.000000" stroke="none" 
	d="
M149.976959,316.653076 
	C147.667343,306.007172 152.633469,296.366516 161.680252,293.276337 
	C171.597824,289.888641 183.041321,293.934174 187.197342,302.297180 
	C192.347382,312.660370 189.005112,321.624603 176.682465,329.938446 
	C178.851852,333.111328 181.603531,333.306641 184.708527,331.732758 
	C186.708008,330.719238 189.020065,329.312775 190.112900,332.255920 
	C191.130661,334.996826 188.374756,335.965729 186.424210,336.616394 
	C181.582565,338.231476 176.852600,337.729218 172.687729,334.632324 
	C169.601639,332.337585 166.443848,330.612671 162.615738,329.566711 
	C156.305161,327.842438 152.199844,323.290161 149.976959,316.653076 
M183.002670,309.308014 
	C182.673843,305.625946 180.987259,302.674286 178.121307,300.394775 
	C172.900009,296.241943 165.356277,296.392761 160.163940,300.721222 
	C155.210190,304.850800 153.839981,311.521240 156.734558,317.416077 
	C159.810791,323.680878 166.388504,326.492157 173.581757,324.616394 
	C179.708832,323.018677 183.267700,317.587585 183.002670,309.308014 
z"/>
<path fill="#000000" opacity="1.000000" stroke="none" 
	d="
M204.152008,328.235779 
	C204.331207,324.753021 206.616608,322.864044 208.341721,320.668427 
	C214.078476,313.367096 219.860748,306.101501 225.980545,298.374023 
	C220.684387,296.823517 216.066666,297.523987 211.498276,297.533752 
	C210.336258,297.536255 209.165924,297.764343 208.014694,297.679993 
	C206.486694,297.568024 204.924561,297.270386 204.904007,295.218842 
	C204.883743,293.196320 206.286789,292.741852 207.916916,292.733093 
	C215.747681,292.691010 223.580856,292.566650 231.408508,292.716339 
	C235.038361,292.785767 235.728958,295.096100 233.073471,298.552063 
	C227.796310,305.419952 222.321243,312.135529 217.004105,318.973236 
	C215.822067,320.493317 214.176971,321.810791 213.975616,324.332062 
	C218.881470,325.615021 223.853729,324.634155 228.739395,324.959503 
	C230.231033,325.058868 231.740845,325.022766 233.212357,325.246094 
	C234.538422,325.447357 235.148590,326.423218 235.121109,327.766815 
	C235.093155,329.135010 234.394958,330.096802 233.048737,330.107635 
	C223.745773,330.182709 214.432022,330.875977 205.149353,329.737885 
	C204.798843,329.694916 204.526260,329.016388 204.152008,328.235779 
z"/>
<path fill="#000000" opacity="1.000000" stroke="none" 
	d="
M199.124603,329.201416 
	C194.574417,330.538574 192.307251,329.222229 192.916702,326.009308 
	C193.362244,323.660522 194.999680,322.362244 197.237595,323.033417 
	C200.189117,323.918610 200.987381,326.083130 199.124603,329.201416 
z"/>
<path fill="#000000" opacity="1.000000" stroke="none" 
	d="
M244.124359,323.670105 
	C245.797165,325.895264 246.220184,327.944946 244.159897,329.655609 
	C242.912476,330.691345 241.312103,330.553986 239.986938,329.588776 
	C238.414047,328.443054 238.183945,326.734375 238.919388,325.119720 
	C239.888351,322.992371 241.592819,322.253082 244.124359,323.670105 
z"/>
</svg>